# xmcd
# Track frame offsets:
# 150
# 21277
# 37648
# 59035
# 80086
# 102579
# 124258
# 145380
# 166347
# 185278
# 204090
# 225837
# 246178
# 263095
# 290183
#
# Disc length: 4094 seconds
# Revision: 0
# Processed by: cddbd v1.4PL0 Copyright (c) Steve Scherf et al.
# Submitted via: VisiTrax 2.9.5.181 - For more info visit www.synapsa.com
#
DISCID=d30ffc0f
DTITLE=Jimmy Lewis - Soupbone
DYEAR=2003
DGENRE=
TTITLE0=Don't Send A Girl To Do A Woman's Job
TTITLE1=Give Me This Weekend
TTITLE2=Love Trainee
TTITLE3=Secret Lover, Undercover (I Don't Know How To Her Go)
TTITLE4=Wife #1 Wife #2
TTITLE5=It's A Different Feeling When U.R. Stealing
TTITLE6=People Will Lie
TTITLE7=Why Do Fools Keep Falling In Love
TTITLE8=Pool Hall Willie
TTITLE9=Different Strokes For Different Folks
TTITLE10=I Found Somebody
TTITLE11=I Don't Want It All
TTITLE12=You Are My Woman
TTITLE13=If I'm Not Still Married
TTITLE14=Party Party Party
EXTD=
EXTT0=
EXTT1=
EXTT2=
EXTT3=
EXTT4=
EXTT5=
EXTT6=
EXTT7=
EXTT8=
EXTT9=
EXTT10=
EXTT11=
EXTT12=
EXTT13=
EXTT14=
PLAYORDER=
